<svg xmlns="http://www.w3.org/2000/svg" viewBox="0 0 1011.81 275.74"><defs><style>.cls-1{fill:#fdfbee;}.cls-2{fill:#ad6331;}.cls-3{fill:#8e532b;opacity:0.37;}.cls-4{font-size:25px;fill:#629199;letter-spacing:-0.03em;}.cls-15,.cls-4{font-family:SegoeUI-Bold, Segoe UI;}.cls-15,.cls-18,.cls-4{font-weight:700;}.cls-5{letter-spacing:-0.04em;}.cls-6{letter-spacing:-0.03em;}.cls-7{letter-spacing:-0.01em;}.cls-8{letter-spacing:-0.03em;}.cls-9{letter-spacing:-0.04em;}.cls-10{letter-spacing:-0.03em;}.cls-11{font-size:21px;font-family:SegoeUI-Semibold, Segoe UI;font-weight:600;}.cls-11,.cls-15{fill:#58595b;}.cls-11,.cls-14{letter-spacing:-0.03em;}.cls-12{letter-spacing:-0.06em;}.cls-13{letter-spacing:-0.04em;}.cls-15{font-size:37.38px;letter-spacing:-0.03em;}.cls-16{letter-spacing:-0.04em;}.cls-17{letter-spacing:-0.03em;}.cls-18{font-size:56px;fill:#447196;font-family:SegoeUI-BoldItalic, Segoe UI;font-style:italic;letter-spacing:0.03em;}.cls-19{letter-spacing:0.04em;}.cls-20{letter-spacing:0.04em;}.cls-21{letter-spacing:0.03em;}.cls-22{fill:#a87033;}.cls-23{fill:#cc8a3b;}.cls-24{opacity:0.18;}.cls-25{fill:#cba985;}.cls-26{fill:#755232;opacity:0.13;}.cls-27{font-size:29px;fill:#fff;font-family:SegoeUI-Semilight, Segoe UI;font-weight:300;letter-spacing:-0.03em;}.cls-28{letter-spacing:-0.02em;}.cls-29{fill:#717c7c;}</style></defs><g id="Layer_2" data-name="Layer 2"><g id="Layer_1-2" data-name="Layer 1"><rect class="cls-1" width="1011.81" height="275.74" rx="44.59"/><path class="cls-2" d="M128.64,23.92h8.15A7.12,7.12,0,0,1,143.91,31v244.7a0,0,0,0,1,0,0h-22.4a0,0,0,0,1,0,0V31a7.12,7.12,0,0,1,7.12-7.12Z"/><path class="cls-3" d="M141.48,29.34a3.59,3.59,0,0,1-1.7,2.8,14.51,14.51,0,0,0-4.58,5.91c-.09.2-.17.38-.24.56-4.11,9.92-2.49,19.33-7.1,30.38l0,.1c-1.09,2.59-3.88,1.49-3.88-1.52V29.34c0-2.63,3.64-2.67,8.48-2.67,4.66,0,8.74,0,9,2.38h0A1.27,1.27,0,0,1,141.48,29.34Z"/><path class="cls-3" d="M123.94,129.7v47.43a37.06,37.06,0,0,0,5-7.58c5.87-11.74,3.81-21.74,9.06-32.27a28.92,28.92,0,0,1,8.32-10.17Z"/><text class="cls-4" transform="translate(265.18 117.89)">Check <tspan class="cls-5" x="72.55" y="0">b</tspan><tspan x="87.06" y="0">ack la</tspan><tspan class="cls-6" x="149.44" y="0">t</tspan><tspan x="158.32" y="0">er </tspan><tspan class="cls-6" x="186.44" y="0">t</tspan><tspan x="195.32" y="0">o </tspan><tspan class="cls-6" x="216" y="0">r</tspan><tspan x="225.11" y="0">ead the dra</tspan><tspan class="cls-7" x="350.29" y="0">f</tspan><tspan x="359.6" y="0">t plan &amp; p</tspan><tspan class="cls-8" x="470.44" y="0">r</tspan><tspan x="479.54" y="0">ovide </tspan><tspan class="cls-9" x="546.88" y="0">y</tspan><tspan x="559.34" y="0">our feed</tspan><tspan class="cls-9" x="652.71" y="0">b</tspan><tspan class="cls-10" x="667.21" y="0">ack!</tspan></text><text class="cls-11" transform="translate(502.68 171.21)">N<tspan class="cls-12" x="15.48" y="0">L</tspan><tspan class="cls-13" x="24.51" y="0">C</tspan><tspan x="36.65" y="0">OG 2045 MTP PUBLIC </tspan><tspan class="cls-13"><tspan x="30.76" y="22">C</tspan><tspan class="cls-14" x="42.91" y="22">OMMENT PERIOD</tspan></tspan></text><text class="cls-15" transform="translate(448.01 234.12)">MA<tspan class="cls-16" x="59.82" y="0">R</tspan><tspan class="cls-17" x="82.73" y="0">CH 10 – APRIL 9</tspan></text><text class="cls-18" transform="translate(279.64 93.22)">R<tspan class="cls-19" x="37.3" y="0">E</tspan><tspan x="68.97" y="0">VI</tspan><tspan class="cls-20" x="126.98" y="0">E</tspan><tspan x="159.01" y="0">W THE DRA</tspan><tspan class="cls-21" x="482.06" y="0">F</tspan><tspan x="512.74" y="0">T MTP</tspan></text><path class="cls-22" d="M238.5,110l3.94-1.87-.85-10.74-3.09-1,2.88-1.6-2-25.73h-4.25l4-2.63-.08-1.1A11.31,11.31,0,0,0,226.88,55L30.74,70.49A11.3,11.3,0,0,0,20.37,82.65l.33,4.24,6.13,1.4-5.91,1.34.58,7.3,7.1,1.62-6.85,1.56,1.71,21.56,5.14,1.17-4.83,2.83.14,1.79a11.32,11.32,0,0,0,12.17,10.38L232.22,122.3a11.28,11.28,0,0,0,10.39-11.47Z"/><path class="cls-23" d="M240,108.14l4-1.87-.85-10.74-3.1-1,2.89-1.6-2-25.73h-4.25l4-2.62-.09-1.11A11.3,11.3,0,0,0,228.4,53.06L32.26,68.59A11.32,11.32,0,0,0,21.88,80.76L22.22,85l6.13,1.4-5.91,1.34L23,95l7.1,1.61-6.85,1.56L25,119.77l5.15,1.17-4.83,2.83.14,1.79A11.31,11.31,0,0,0,37.6,135.94l196.14-15.53a11.3,11.3,0,0,0,10.39-11.48Z"/><g class="cls-24"><path class="cls-25" d="M22,80.25c6.65.52,13.28.91,19.91,1.12s13.25.19,19.87-.08a198.11,198.11,0,0,0,19.77-1.82c6.56-.93,13.07-2.22,19.58-3.64a380.39,380.39,0,0,1,39.55-7.17q10-1.22,20.05-1.71c6.69-.35,13.39-.5,20.09-.39v1.49c-6.67.19-13.32.54-20,1.09s-13.25,1.3-19.84,2.21-13.14,2.05-19.65,3.4-13,2.9-19.53,4.34S88.68,81.9,82,82.89a199.24,199.24,0,0,1-20.11,2,158.13,158.13,0,0,1-40.16-3.14Z"/></g><g class="cls-24"><path class="cls-25" d="M52.34,107.53c7,0,14,.07,20.89-.3a157.67,157.67,0,0,0,20.71-2.56c6.87-1.29,13.83-2.44,20.82-3.17,3.5-.39,7-.66,10.51-.85s7-.31,10.52-.31l0,.89c-7,.36-13.95,1-20.87,1.88q-5.19.66-10.34,1.58L94.3,106.63a158.21,158.21,0,0,1-21,2.74,97.89,97.89,0,0,1-21.09-1Z"/></g><g class="cls-24"><path class="cls-25" d="M235.85,80.4c-3.54.37-7,.56-10.49.78L215,81.83a191.39,191.39,0,0,0-20.52,2.77c-6.87,1.21-13.89,2.38-20.94,3a89.68,89.68,0,0,1-21.16,0l0-.89c6.95-1.4,13.85-2,20.73-3s13.65-2.35,20.55-3.72c3.45-.66,7-1.26,10.49-1.68s7.09-.7,10.64-.84a78.88,78.88,0,0,1,10.65.24,58.59,58.59,0,0,1,10.5,1.83Z"/></g><g class="cls-24"><path class="cls-25" d="M122.13,112.47a111.39,111.39,0,0,1,29.52-8.73A118.27,118.27,0,0,1,167,102.49c5.16-.08,10.3.21,15.41.61s10.21.87,15.31,1.15,10.2.35,15.3.19a194.83,194.83,0,0,0,30.45-3.34l.12.61a186.59,186.59,0,0,1-30.53,3.84q-7.69.33-15.41,0c-5.13-.21-10.24-.66-15.34-1s-10.19-.65-15.28-.55a115.43,115.43,0,0,0-15.2,1.28A148.56,148.56,0,0,0,122.36,113Z"/></g><path class="cls-26" d="M158.62,117.85c-54.92.65-86.59,9.24-115.84-9.93A76.88,76.88,0,0,1,29.47,96.83l-6.18,1.4L23,95.06l6.06,1.38a83.59,83.59,0,0,1-6.61-8L25,119.8l5.16,1.14-4.84,2.89.14,1.79A11.31,11.31,0,0,0,37.59,136l187.87-14.87A559.79,559.79,0,0,0,158.62,117.85Z"/><text class="cls-27" transform="translate(31.73 114.95) rotate(-5.01)">C<tspan class="cls-28" x="17.11" y="0">OMING SOON!</tspan></text><circle class="cls-29" cx="133.26" cy="67.42" r="1.79"/></g></g></svg>