<svg xmlns="http://www.w3.org/2000/svg" xmlns:xlink="http://www.w3.org/1999/xlink" viewBox="0 0 400 220"><defs><style>.cls-1,.cls-2,.cls-4{fill:none;}.cls-1{clip-rule:evenodd;}.cls-3{fill:#447196;opacity:0.8;}.cls-4{stroke:#fff;stroke-miterlimit:10;stroke-width:10.14px;}.cls-5{clip-path:url(#clip-path);}.cls-6{clip-path:url(#clip-path-2);}.cls-7{fill:#fff;}</style><clipPath id="clip-path"><polygon class="cls-1" points="158.5 151.42 241.27 151.42 241.27 67.61 158.5 67.61 158.5 151.42 158.5 151.42"/></clipPath><clipPath id="clip-path-2"><polygon class="cls-2" points="158.5 151.42 241.27 151.42 241.27 67.61 158.5 67.61 158.5 151.42 158.5 151.42"/></clipPath></defs><g id="Layer_2" data-name="Layer 2"><g id="Layer_1-2" data-name="Layer 1"><image width="4608" height="3456" transform="scale(0.09 0.06)" xlink:href="../../../../../Project%20Archive/Planning/PLDV-2014.0065%20NLCOG%20MTP%20Update/Tasks/9Prep%20of%20Plan%20Doc/00%20Graphics/Images/Public%20Involvement%20Handbook%20Images/IMG_0036.JPG"/><rect class="cls-3" width="400" height="220"/><circle class="cls-4" cx="200" cy="110" r="62.43"/><g class="cls-5"><g class="cls-6"><path class="cls-7" d="M217.13,94a3.76,3.76,0,0,1-3.71-3.93A3.72,3.72,0,1,1,217.13,94Zm-3.71-12.14a8.31,8.31,0,0,0-4.31,3.93,9.13,9.13,0,0,0-.43,7.51l4.14,9.08,2.76,5.77a1.73,1.73,0,0,0,3.1,0l2.76-5.77,4.14-9a8.72,8.72,0,0,0,.6-3.32c0-6.11-6.2-10.74-12.76-8.21Z"/><path class="cls-7" d="M198.16,131.18l-13.79-7V95.73l13.79,7v28.47Zm-17.24-7-10.35,5.24V101l10.35-5.24V124.2Zm47.76-29.35h0l-2.15,4.72,2.67,1.4v28.47l-10.35-5.24V112.58h-3.44V124.2l-13.8,7V102.71l6.12-3.14-2.15-4.72-5.69,2.89L182.64,89,165.4,97.74v40.17l17.24-8.74,17.25,8.74,17.24-8.74,17.24,8.74V97.74l-5.69-2.89Z"/></g></g></g></g></svg>