<svg xmlns="http://www.w3.org/2000/svg" xmlns:xlink="http://www.w3.org/1999/xlink" viewBox="0 0 400 220"><defs><style>.cls-1{fill:#629199;opacity:0.8;}.cls-2{fill:#fff;}.cls-3{fill:none;stroke:#fff;stroke-miterlimit:10;stroke-width:10.14px;}</style></defs><g id="Layer_2" data-name="Layer 2"><g id="Layer_1-2" data-name="Layer 1"><image width="3083" height="1927" transform="scale(0.13 0.11)" xlink:href="../../../../../Project%20Archive/Planning/PLDV-2014.0065%20NLCOG%20MTP%20Update/Tasks/9Prep%20of%20Plan%20Doc/00%20Graphics/Images/Public%20Involvement%20Handbook%20Images/Bridge.jpg"/><rect class="cls-1" width="400" height="220"/><path class="cls-2" d="M209,116a2.69,2.69,0,0,1,.05,3.59l-.05,0-4,1.43-.7-.76,1.32-4.36a2.3,2.3,0,0,1,3.39,0Zm18.12-26.28L204,115l-3,9.73,9-3.23L233.19,96.3l-6-6.56Z"/><path class="cls-2" d="M238.23,87.9l-3.35-3.64a1.78,1.78,0,0,0-2.66,0l0,0-3.3,3.59,6,6.5,3.3-3.58a2.05,2.05,0,0,0,.17-2.74l-.12-.13Z"/><polygon class="cls-2" points="185.41 124.67 198.42 124.67 199.51 121.11 185.41 121.11 185.41 124.67 185.41 124.67 185.41 124.67"/><polygon class="cls-2" points="185.41 103.27 211.24 103.27 214.52 99.7 185.41 99.7 185.41 103.27 185.41 103.27 185.41 103.27"/><path class="cls-2" d="M221.55,112.72v27.12H180.48V84.54h9v5.35h23V84.54h9v7.51l3.86-4.2h0l.14-.15.92-1V82.76a3.44,3.44,0,0,0-3.28-3.57h-14V77.41a3.44,3.44,0,0,0-3.29-3.57h-9.85a3.44,3.44,0,0,0-3.29,3.57v1.78h-14a3.44,3.44,0,0,0-3.28,3.57v58.86a3.44,3.44,0,0,0,3.28,3.57h44.35a3.44,3.44,0,0,0,3.28-3.57V107.37l-4.92,5.35ZM199.26,78.18a2.27,2.27,0,0,1,1.75-.77,2.68,2.68,0,1,1-2.46,2.67,2.77,2.77,0,0,1,.71-1.9Z"/><polygon class="cls-2" points="185.41 113.97 201.38 113.97 204.66 110.41 185.41 110.41 185.41 113.97 185.41 113.97 185.41 113.97"/><circle class="cls-3" cx="200" cy="110" r="62.43"/></g></g></svg>